<mxfile host="app.diagrams.net" modified="2021-05-28T15:43:21.262Z" agent="5.0 (Macintosh; Intel Mac OS X 10_15_6) AppleWebKit/605.1.15 (KHTML, like Gecko) Version/14.0.3 Safari/605.1.15" etag="Iedw-DCGMWbYJ0Sva0Kp" version="14.6.13" type="github">
  <diagram id="z7ZPEjlhhMBZymB7cSth" name="Page-1">
    <mxGraphModel dx="946" dy="645" grid="1" gridSize="10" guides="1" tooltips="1" connect="1" arrows="1" fold="1" page="1" pageScale="1" pageWidth="827" pageHeight="1169" math="0" shadow="0">
      <root>
        <mxCell id="0" />
        <mxCell id="1" parent="0" />
        <mxCell id="3A--D1iM8Y7gxvbmCqtf-2" value="CanvasRenderingContext" style="rounded=0;whiteSpace=wrap;html=1;" vertex="1" parent="1">
          <mxGeometry x="50" y="130" width="180" height="60" as="geometry" />
        </mxCell>
        <mxCell id="3A--D1iM8Y7gxvbmCqtf-3" value="" style="endArrow=classic;html=1;" edge="1" parent="1">
          <mxGeometry width="50" height="50" relative="1" as="geometry">
            <mxPoint x="320" y="160" as="sourcePoint" />
            <mxPoint x="240" y="160" as="targetPoint" />
          </mxGeometry>
        </mxCell>
        <mxCell id="3A--D1iM8Y7gxvbmCqtf-4" value="&lt;div style=&quot;text-align: center&quot;&gt;&lt;b&gt;Bienen&lt;/b&gt;&lt;/div&gt;&lt;blockquote style=&quot;margin: 0 0 0 40px ; border: none ; padding: 0px&quot;&gt;&lt;br&gt;position: Vector;&lt;br&gt;velocity: Vector;&lt;/blockquote&gt;&lt;blockquote style=&quot;margin: 0 0 0 40px ; border: none ; padding: 0px&quot;&gt;&lt;br&gt;constructor(_x: number)&lt;br&gt;drawBees(_x:number, _y:number): void&lt;br&gt;move(_timeslice: number): void&lt;/blockquote&gt;" style="rounded=0;whiteSpace=wrap;html=1;align=left;" vertex="1" parent="1">
          <mxGeometry x="320" y="105" width="270" height="135" as="geometry" />
        </mxCell>
        <mxCell id="3A--D1iM8Y7gxvbmCqtf-5" value="" style="endArrow=none;html=1;entryX=1;entryY=0.25;entryDx=0;entryDy=0;exitX=0;exitY=0.25;exitDx=0;exitDy=0;" edge="1" parent="1" source="3A--D1iM8Y7gxvbmCqtf-4" target="3A--D1iM8Y7gxvbmCqtf-4">
          <mxGeometry width="50" height="50" relative="1" as="geometry">
            <mxPoint x="460" y="360" as="sourcePoint" />
            <mxPoint x="510" y="310" as="targetPoint" />
          </mxGeometry>
        </mxCell>
        <mxCell id="3A--D1iM8Y7gxvbmCqtf-6" value="" style="endArrow=none;html=1;entryX=1;entryY=0.25;entryDx=0;entryDy=0;exitX=0;exitY=0.25;exitDx=0;exitDy=0;" edge="1" parent="1">
          <mxGeometry width="50" height="50" relative="1" as="geometry">
            <mxPoint x="320" y="180" as="sourcePoint" />
            <mxPoint x="590" y="180" as="targetPoint" />
          </mxGeometry>
        </mxCell>
        <mxCell id="3A--D1iM8Y7gxvbmCqtf-7" value="&lt;div style=&quot;text-align: center&quot;&gt;&lt;b&gt;Vector&lt;/b&gt;&lt;/div&gt;&lt;blockquote style=&quot;margin: 0 0 0 40px ; border: none ; padding: 0px&quot;&gt;x: number;&lt;/blockquote&gt;&lt;blockquote style=&quot;margin: 0 0 0 40px ; border: none ; padding: 0px&quot;&gt;y: number;&lt;/blockquote&gt;&lt;blockquote style=&quot;margin: 0 0 0 40px ; border: none ; padding: 0px&quot;&gt;&lt;br&gt;&lt;/blockquote&gt;&lt;blockquote style=&quot;margin: 0 0 0 40px ; border: none ; padding: 0px&quot;&gt;constructor(_x: number, _y: number)&lt;br&gt;&lt;/blockquote&gt;&lt;blockquote style=&quot;margin: 0 0 0 40px ; border: none ; padding: 0px&quot;&gt;seit(_x:number, _y:number): void&lt;br&gt;scale(_factor: number): void&lt;/blockquote&gt;&lt;blockquote style=&quot;margin: 0 0 0 40px ; border: none ; padding: 0px&quot;&gt;add(_addend: Vector):void&lt;/blockquote&gt;&lt;blockquote style=&quot;margin: 0 0 0 40px ; border: none ; padding: 0px&quot;&gt;random(_minLength: number, _maxLenght: number: void&lt;/blockquote&gt;" style="rounded=0;whiteSpace=wrap;html=1;align=left;" vertex="1" parent="1">
          <mxGeometry x="275" y="290" width="360" height="150" as="geometry" />
        </mxCell>
        <mxCell id="3A--D1iM8Y7gxvbmCqtf-8" value="" style="endArrow=none;html=1;entryX=1.003;entryY=0.167;entryDx=0;entryDy=0;exitX=-0.003;exitY=0.173;exitDx=0;exitDy=0;entryPerimeter=0;exitPerimeter=0;" edge="1" parent="1" source="3A--D1iM8Y7gxvbmCqtf-7" target="3A--D1iM8Y7gxvbmCqtf-7">
          <mxGeometry width="50" height="50" relative="1" as="geometry">
            <mxPoint x="415" y="545" as="sourcePoint" />
            <mxPoint x="465" y="495" as="targetPoint" />
          </mxGeometry>
        </mxCell>
        <mxCell id="3A--D1iM8Y7gxvbmCqtf-9" value="" style="endArrow=none;html=1;exitX=0;exitY=0.25;exitDx=0;exitDy=0;" edge="1" parent="1">
          <mxGeometry width="50" height="50" relative="1" as="geometry">
            <mxPoint x="275" y="350" as="sourcePoint" />
            <mxPoint x="634" y="349" as="targetPoint" />
          </mxGeometry>
        </mxCell>
        <mxCell id="3A--D1iM8Y7gxvbmCqtf-10" value="" style="endArrow=classic;html=1;exitX=0.5;exitY=1;exitDx=0;exitDy=0;" edge="1" parent="1" source="3A--D1iM8Y7gxvbmCqtf-4" target="3A--D1iM8Y7gxvbmCqtf-7">
          <mxGeometry width="50" height="50" relative="1" as="geometry">
            <mxPoint x="460" y="410" as="sourcePoint" />
            <mxPoint x="510" y="360" as="targetPoint" />
          </mxGeometry>
        </mxCell>
        <mxCell id="3A--D1iM8Y7gxvbmCqtf-11" value="&lt;div style=&quot;text-align: center&quot;&gt;&lt;span style=&quot;text-align: left&quot;&gt;&lt;b&gt;Cloud&lt;/b&gt;&lt;/span&gt;&lt;/div&gt;&lt;div style=&quot;text-align: center&quot;&gt;&lt;span style=&quot;text-align: left&quot;&gt;&lt;b&gt;&lt;br&gt;&lt;/b&gt;&lt;/span&gt;&lt;/div&gt;&lt;blockquote style=&quot;margin: 0 0 0 40px ; border: none ; padding: 0px&quot;&gt;&lt;div&gt;&lt;span&gt;position: Vector;&lt;/span&gt;&lt;/div&gt;&lt;div&gt;&lt;span&gt;velocity: Vector;&lt;/span&gt;&lt;/div&gt;&lt;div&gt;&lt;span&gt;size: Vector&lt;/span&gt;&lt;/div&gt;&lt;div&gt;&lt;span&gt;x: number;&lt;/span&gt;&lt;/div&gt;&lt;div&gt;&lt;span&gt;y: number;&lt;/span&gt;&lt;/div&gt;&lt;/blockquote&gt;&lt;blockquote style=&quot;margin: 0 0 0 40px ; border: none ; padding: 0px&quot;&gt;&lt;br&gt;&lt;/blockquote&gt;&lt;blockquote style=&quot;margin: 0 0 0 40px ; border: none ; padding: 0px&quot;&gt;constructor(_x: number, _y: number,position: Vector; velocity: Vector;&lt;/blockquote&gt;&lt;blockquote style=&quot;margin: 0 0 0 40px ; border: none ; padding: 0px&quot;&gt;size: Vector )&lt;br&gt;&lt;/blockquote&gt;&lt;blockquote style=&quot;margin: 0 0 0 40px ; border: none ; padding: 0px&quot;&gt;seit(_x:number, _y:number): void&lt;br&gt;scale(_factor: number): void&lt;/blockquote&gt;&lt;blockquote style=&quot;margin: 0 0 0 40px ; border: none ; padding: 0px&quot;&gt;add(_addend: Vector):void&lt;/blockquote&gt;&lt;blockquote style=&quot;margin: 0 0 0 40px ; border: none ; padding: 0px&quot;&gt;random(_minLength: number, _maxLenght: number: void&lt;/blockquote&gt;" style="rounded=0;whiteSpace=wrap;html=1;align=left;" vertex="1" parent="1">
          <mxGeometry x="251.07999999999998" y="490" width="433.92" height="200" as="geometry" />
        </mxCell>
        <mxCell id="3A--D1iM8Y7gxvbmCqtf-12" value="" style="endArrow=none;html=1;entryX=1.005;entryY=0.12;entryDx=0;entryDy=0;exitX=-0.003;exitY=0.173;exitDx=0;exitDy=0;entryPerimeter=0;exitPerimeter=0;" edge="1" parent="1" target="3A--D1iM8Y7gxvbmCqtf-11">
          <mxGeometry width="50" height="50" relative="1" as="geometry">
            <mxPoint x="250" y="516.5999999999999" as="sourcePoint" />
            <mxPoint x="612.1599999999999" y="515.4000000000001" as="targetPoint" />
          </mxGeometry>
        </mxCell>
        <mxCell id="3A--D1iM8Y7gxvbmCqtf-13" value="" style="endArrow=none;html=1;exitX=0;exitY=0.5;exitDx=0;exitDy=0;entryX=1;entryY=0.5;entryDx=0;entryDy=0;" edge="1" parent="1">
          <mxGeometry width="50" height="50" relative="1" as="geometry">
            <mxPoint x="251.07999999999993" y="599" as="sourcePoint" />
            <mxPoint x="685" y="599" as="targetPoint" />
          </mxGeometry>
        </mxCell>
        <mxCell id="3A--D1iM8Y7gxvbmCqtf-14" value="" style="endArrow=classic;html=1;exitX=0.5;exitY=1;exitDx=0;exitDy=0;" edge="1" parent="1">
          <mxGeometry width="50" height="50" relative="1" as="geometry">
            <mxPoint x="455.58" y="440" as="sourcePoint" />
            <mxPoint x="455.58" y="490" as="targetPoint" />
          </mxGeometry>
        </mxCell>
        <mxCell id="3A--D1iM8Y7gxvbmCqtf-18" value="" style="endArrow=none;html=1;" edge="1" parent="1">
          <mxGeometry width="50" height="50" relative="1" as="geometry">
            <mxPoint x="130" y="599" as="sourcePoint" />
            <mxPoint x="251.07999999999998" y="599" as="targetPoint" />
          </mxGeometry>
        </mxCell>
        <mxCell id="3A--D1iM8Y7gxvbmCqtf-19" value="" style="endArrow=classic;html=1;entryX=0.433;entryY=1.067;entryDx=0;entryDy=0;entryPerimeter=0;" edge="1" parent="1" target="3A--D1iM8Y7gxvbmCqtf-2">
          <mxGeometry width="50" height="50" relative="1" as="geometry">
            <mxPoint x="130" y="600" as="sourcePoint" />
            <mxPoint x="510" y="420" as="targetPoint" />
          </mxGeometry>
        </mxCell>
      </root>
    </mxGraphModel>
  </diagram>
</mxfile>
